<svg width="current" height="current" viewBox="0 0 200 200" fill="none" xmlns="http://www.w3.org/2000/svg">
  <path
    d="M95.2602 31.8593C95.2607 31.8709 95.2611 31.8795 95.2613 31.8851C95.2915 34.6204 97.5184 36.8285 100.261 36.8285C103.004 36.8285 105.23 34.6204 105.261 31.885C105.261 31.8795 105.261 31.8709 105.262 31.8593C105.264 31.8073 105.271 31.6957 105.287 31.53C105.319 31.1982 105.391 30.6533 105.545 29.9403C105.854 28.5151 106.495 26.4268 107.822 24.0223C110.431 19.2964 115.902 12.9659 127.64 8.12273C138.399 3.68341 156.083 5.80514 170.878 16.8336C185.342 27.6159 196.865 46.8801 195.078 76.343C194.208 90.6884 187.974 105.38 178.7 119.55C169.449 133.686 157.38 146.986 145.304 158.483C133.243 169.966 121.281 179.55 112.326 186.268C107.852 189.623 104.139 192.256 101.551 194.045C101.084 194.369 100.653 194.664 100.261 194.932C99.8692 194.664 99.4383 194.369 98.9705 194.045C96.3834 192.256 92.6699 189.623 88.1962 186.268C79.2411 179.55 67.2785 169.966 55.2179 158.483C43.1418 146.986 31.0731 133.686 21.8216 119.55C12.5474 105.38 6.31374 90.6884 5.44387 76.343C3.65729 46.8801 15.1798 27.6159 29.6442 16.8336C44.4387 5.80514 62.1232 3.68341 72.882 8.12273C84.6194 12.9659 90.0909 19.2964 92.6996 24.0223C94.0269 26.4268 94.6674 28.5151 94.9766 29.9404C95.1313 30.6533 95.2025 31.1982 95.235 31.53C95.2513 31.6957 95.2577 31.8074 95.2602 31.8593Z"
    fill="#F7C6C6" stroke="#EA8686" stroke-width="10" stroke-linejoin="round" />
</svg>