<svg width="275" height="76" viewBox="0 0 275 76" fill="none" xmlns="http://www.w3.org/2000/svg">
  <path
    d="M88.3867 64.2109C88.0352 64.2109 87.707 64.125 87.4023 63.9531C87.0977 63.7734 86.8555 63.5312 86.6758 63.2266C86.5039 62.9219 86.4219 62.5898 86.4297 62.2305C86.4219 61.8789 86.5039 61.5547 86.6758 61.2578C86.8555 60.9609 87.0977 60.7266 87.4023 60.5547C87.707 60.3828 88.0352 60.2969 88.3867 60.2969C88.7305 60.2969 89.0547 60.3828 89.3594 60.5547C89.6641 60.7266 89.9023 60.9648 90.0742 61.2695C90.2539 61.5664 90.3477 61.8867 90.3555 62.2305C90.3477 62.5898 90.2539 62.9219 90.0742 63.2266C89.9023 63.5312 89.6641 63.7734 89.3594 63.9531C89.0547 64.125 88.7305 64.2109 88.3867 64.2109ZM88.3867 55.2812C88.0352 55.2812 87.707 55.1953 87.4023 55.0234C87.0977 54.8438 86.8555 54.6016 86.6758 54.2969C86.5039 53.9922 86.4219 53.6602 86.4297 53.3008C86.4219 52.9492 86.5039 52.625 86.6758 52.3281C86.8555 52.0312 87.0977 51.7969 87.4023 51.625C87.707 51.4531 88.0352 51.3672 88.3867 51.3672C88.7305 51.3672 89.0547 51.4531 89.3594 51.625C89.6641 51.7969 89.9023 52.0352 90.0742 52.3398C90.2539 52.6367 90.3477 52.957 90.3555 53.3008C90.3477 53.6602 90.2539 53.9922 90.0742 54.2969C89.9023 54.6016 89.6641 54.8438 89.3594 55.0234C89.0547 55.1953 88.7305 55.2812 88.3867 55.2812ZM116.359 66.1562H113.477V44.8047H116.359V66.1562ZM114.344 55.3047H110.711V52.9023H114.344V55.3047ZM107.242 47.4648C107.234 49.5586 106.988 51.4609 106.504 53.1719C106.027 54.875 105.215 56.4531 104.066 57.9062C102.918 59.3516 101.375 60.6367 99.4375 61.7617L97.7031 59.7109C99.3281 58.75 100.629 57.6953 101.605 56.5469C102.59 55.3984 103.297 54.1328 103.727 52.75C104.164 51.3672 104.387 49.8008 104.395 48.0508V47.4648H107.242ZM105.262 49.8438H98.7812V47.4648H105.262V49.8438ZM111.531 65.207H108.742V45.3672H111.531V65.207ZM122.301 48.3203H126.672V45.7773H129.672V55.0938H119.336V45.7773H122.301V48.3203ZM126.672 52.7383V50.5586H122.301V52.7383H126.672ZM135.625 55.6797H132.637V44.8047H135.625V55.6797ZM138.508 51.4023H134.383V48.9766H138.508V51.4023ZM135.625 62.2773H124.457V64.832H121.516V60.1328H132.648V58.7969H121.48V56.4883H135.625V62.2773ZM136.246 66.0039H121.516V63.6602H136.246V66.0039ZM146.688 50.6289C146.688 52.2695 146.453 53.8555 145.984 55.3867C145.523 56.9102 144.84 58.2695 143.934 59.4648C143.035 60.6602 141.957 61.5547 140.699 62.1484L138.941 59.793C140.09 59.2539 141.066 58.4922 141.871 57.5078C142.684 56.5234 143.293 55.4375 143.699 54.25C144.105 53.0625 144.312 51.8555 144.32 50.6289V48.1445H146.688V50.6289ZM147.32 50.6289C147.312 51.7617 147.508 52.8867 147.906 54.0039C148.305 55.1211 148.895 56.1484 149.676 57.0859C150.465 58.0156 151.422 58.7383 152.547 59.2539L150.883 61.5977C149.625 61.0273 148.551 60.1719 147.66 59.0312C146.777 57.8906 146.105 56.5938 145.645 55.1406C145.184 53.6797 144.953 52.1758 144.953 50.6289V48.1445H147.32V50.6289ZM151.621 49.3281H139.797V46.8906H151.621V49.3281ZM156.273 66.1562H153.273V44.8047H156.273V66.1562ZM159.438 55.4688H155.617V52.9727H159.438V55.4688ZM167.102 46.2461C168.211 46.2461 169.215 46.4727 170.113 46.9258C171.02 47.3711 171.727 47.9922 172.234 48.7891C172.75 49.5859 173.008 50.4844 173.008 51.4844C173.008 52.4922 172.75 53.3945 172.234 54.1914C171.727 54.9805 171.02 55.6016 170.113 56.0547C169.215 56.5 168.211 56.7227 167.102 56.7227C165.984 56.7227 164.973 56.5 164.066 56.0547C163.168 55.6016 162.461 54.9805 161.945 54.1914C161.43 53.3945 161.172 52.4922 161.172 51.4844C161.172 50.4844 161.43 49.5859 161.945 48.7891C162.461 47.9922 163.168 47.3711 164.066 46.9258C164.973 46.4727 165.984 46.2461 167.102 46.2461ZM167.102 48.8242C166.531 48.832 166.023 48.9414 165.578 49.1523C165.133 49.3555 164.781 49.6602 164.523 50.0664C164.266 50.4727 164.137 50.9453 164.137 51.4844C164.137 52.0391 164.266 52.5156 164.523 52.9141C164.781 53.3047 165.133 53.6055 165.578 53.8164C166.023 54.0273 166.531 54.1367 167.102 54.1445C167.672 54.1367 168.184 54.0273 168.637 53.8164C169.098 53.6055 169.453 53.3047 169.703 52.9141C169.961 52.5156 170.09 52.0391 170.09 51.4844C170.09 50.9453 169.961 50.4727 169.703 50.0664C169.453 49.6602 169.098 49.3555 168.637 49.1523C168.184 48.9414 167.672 48.832 167.102 48.8242ZM178.105 66.2148H175.141V44.8047H178.105V66.2148ZM160.281 59.418C162.828 59.418 165.23 59.375 167.488 59.2891C169.754 59.2031 171.902 59.0195 173.934 58.7383L174.145 60.8828C172.684 61.1719 171.168 61.3867 169.598 61.5273C168.027 61.6602 166.547 61.7461 165.156 61.7852C163.766 61.8242 162.258 61.8438 160.633 61.8438L160.281 59.418ZM205.996 63.6602H186.496V61.2109H205.996V63.6602ZM197.676 61.7969H194.734V56.418H197.676V61.7969ZM203.828 56.8516H188.559V46.4102H203.828V56.8516ZM191.512 54.5078H200.887V48.7891H191.512V54.5078ZM226.727 57.7539H207.238V55.3633H226.727V57.7539ZM224.594 53.6172H209.594V51.2266H224.594V53.6172ZM224.383 47.9805H212.57V52.1055H209.594V45.6016H224.383V47.9805ZM224.699 65.7578H209.582V63.3555H224.699V65.7578ZM212.523 63.9883H209.582V59.4062H212.523V63.9883ZM250.902 56.7461H235.832V54.3672H250.902V56.7461ZM253.035 63.7422H233.535V61.293H253.035V63.7422ZM244.715 62.0781H241.773V55.457H244.715V62.0781ZM250.75 48.707H238.82V55.4453H235.832V46.3398H250.75V48.707ZM270.016 48.4492H256.492V46.082H270.016V48.4492ZM273.73 57.5664H254.277V55.1523H273.73V57.5664ZM265.398 66.1797H262.398V56.8281H265.398V66.1797ZM271.445 48.0977C271.438 49.1133 271.422 50 271.398 50.7578C271.375 51.5156 271.297 52.3906 271.164 53.3828C271.039 54.375 270.848 55.4453 270.59 56.5938L267.637 56.2656C267.887 55.1797 268.07 54.1602 268.188 53.207C268.305 52.2461 268.379 51.4062 268.41 50.6875C268.441 49.9688 268.457 49.1016 268.457 48.0859V47.9805V46.082H271.445V47.9805V48.0977Z"
    fill="#3C3C3C" />
  <path
    d="M31.3384 13.5899C31.3384 13.5899 39.6317 18.0854 45.2201 20.0036C53.5651 22.8678 67.5095 25.4159 67.5095 25.4159L41.3026 45.9862C41.3026 45.9862 29.6149 43.8783 22.8532 40.9496C16.2516 38.0901 6.92512 31.3599 6.92512 31.3599L31.3384 13.5899Z"
    fill="#E7B1B1" />
  <path d="M41.5532 45.4649L66.7712 25.3587L73.9277 48.8728L44.2795 74.4316L41.5532 45.4649Z" fill="#DE9898" />
  <path
    d="M7.13408 31.4928C7.13408 31.4928 16.2833 37.5621 22.8101 40.3532C29.6681 43.2858 41.2125 45.4649 41.2125 45.4649L43.9387 74.7723L1.34076 56.0292L7.13408 31.4928Z"
    fill="#F7C6C6" />
  <path
    d="M7.15053 31.2113L30.874 13.4313C30.874 13.4313 38.8211 17.7137 44.0537 19.5654C52.7748 22.6516 66.8985 24.9883 66.8985 24.9883M7.15053 31.2113L1 56.1033L44.0537 74.7724M7.15053 31.2113C7.15053 31.2113 16.7229 37.6896 23.5973 40.5236C30.3904 43.324 41.4178 45.4353 41.4178 45.4353M41.4178 45.4353L66.8985 24.9883M41.4178 45.4353L44.0537 74.7724M66.8985 24.9883L73.9277 48.9913L44.0537 74.7724"
    stroke="#3C3C3C" />
  <path
    d="M31.5951 34.8878L33.0379 34.8721L34.2184 34.8593L43.1922 27.6784L43.1765 26.2355L42.6519 26.2412L40.6926 26.2624L37.0117 26.3023L37.0274 27.7451L38.7325 27.7267L31.5781 33.3138L31.5951 34.8878Z"
    fill="#3C3C3C" />
  <path
    d="M46.8991 28.4327C46.8991 28.4327 49.1158 28.5288 50.1882 29.3154C51.1391 30.0129 51.8396 30.6125 51.9203 31.7891C52.0118 33.1217 51.6436 33.937 50.6413 34.8201C50.1402 35.2616 49.4694 35.6199 48.6824 35.6284C47.4731 35.6415 39.3696 35.7293 39.3696 35.7293L44.9527 38.2924L42.831 40.4143L34.7873 36.566C34.7873 36.566 35.8404 34.6729 37.9069 33.9086C40.4533 32.9667 46.2944 33.1618 46.2944 33.1618C46.2944 33.1618 47.7513 33.186 48.2562 32.6158C48.6858 32.1307 48.9255 31.5233 48.6312 30.9064C48.2825 30.1754 47.3225 30.2647 46.6566 30.2719C45.8549 30.2806 45.0855 30.5513 44.8732 30.9471C44.7326 31.2092 44.8814 31.7085 44.8814 31.7085L42.3435 31.736C42.3435 31.736 41.9454 31.3118 41.9418 30.9789C41.9382 30.6459 42.0363 30.3067 42.325 30.0308C42.7146 29.6587 43.3649 29.1772 44.1489 28.8561C45.1544 28.4441 46.8991 28.4327 46.8991 28.4327Z"
    fill="#3C3C3C" />
  <path
    d="M17.6446 27.3752L20.2523 29.5086L25.1026 25.4712L28.6035 27.9443L31.3298 27.9443L31.3298 26.5812L27.3136 23.827L28.9443 22.151L33.7153 25.4712L36.1007 25.4712L36.1655 24.0505L28.2832 18.7592L17.6446 27.3752Z"
    fill="#3C3C3C" />
</svg>