<svg viewBox="0 0 500 396" fill="none" xmlns="http://www.w3.org/2000/svg">
  <path
    d="M205.317 1.98218C205.317 1.98218 264.715 34.2063 302.651 47.2268C359.298 66.6697 449.899 81.354 449.899 81.354L285.276 201.293C285.276 201.293 192.422 189.426 146.523 169.545C101.71 150.135 42.6982 124.316 42.6982 124.316L205.317 1.98218Z"
    fill="#F6BEBE" />
  <path d="M283.513 201.294L449.899 81.9419L497.522 243.195L294.684 392.962L283.513 201.294Z" fill="#F4AEAE" />
  <path
    d="M44.1168 125.218C44.1168 125.218 107.567 158.17 153.578 172.485C206.492 188.947 282.924 201.294 282.924 201.294L292.331 392.962L2.47754 292.424L44.1168 125.218Z"
    fill="#F8CECE" />
  <path
    d="M44.2283 123.307L205.267 2.61304C205.267 2.61304 259.213 31.6826 294.733 44.2523C353.933 65.2018 449.807 81.0638 449.807 81.0638M44.2283 123.307L2.47754 292.277L294.095 393.55M44.2283 123.307C44.2283 123.307 104.518 155.347 152.402 171.309C196.497 186.007 285.276 201.294 285.276 201.294M285.276 201.294L449.807 81.0638M285.276 201.294L294.095 393.55M449.807 81.0638L497.522 244L294.095 393.55"
    stroke="#3C3C3C" stroke-width="4" />
  <path
    d="M301.544 73.4602C250.237 55.9479 225.412 43.1118 225.412 43.1118L167.038 84.8609C167.038 84.8609 210.911 105.378 244.399 114.595L257.303 105.378C234.568 99.2332 203.23 85.377 203.23 85.377L211.587 79.2323C211.587 79.2323 235.182 89.8485 260.068 97.5293L272.972 87.8355C248.086 79.8475 224.736 69.7088 224.736 69.7088L233.953 63.0143C233.953 63.0143 262.833 75.6108 288.641 83.5989L301.544 73.4602Z"
    fill="#3C3C3C" />
  <path
    d="M307.997 98.9598C290.177 93.9801 281.814 90.9075 281.814 90.9075L268.249 100.281C268.249 100.281 281.814 105.348 294.478 108.484L263.141 131.275C263.141 131.275 277.581 135.038 285.569 136.805L355.003 86.6704C345.172 84.2538 332.575 80.833 332.575 80.833L307.997 98.9598Z"
    fill="#3C3C3C" />
  <path fill-rule="evenodd" clip-rule="evenodd"
    d="M185.166 158.161C218.528 170.097 253.971 171.986 264.431 159.226C273.837 147.753 259.823 130.51 218.347 116.378C187.72 105.942 162.626 103.213 151.677 116.378C144.522 124.98 151.676 146.179 185.166 158.161ZM198.929 148.975C217.363 154.669 244.891 158.71 248.7 148.975C251.465 141.908 231.546 134.081 212.14 127.468C196.471 122.13 176.437 116.715 170.049 124.396C165.515 129.847 177.395 142.323 198.929 148.975Z"
    fill="#3C3C3C" />
</svg>