<svg viewBox="0 0 200 200" fill="none" xmlns="http://www.w3.org/2000/svg">
  <path
    d="M94.9992 30.9095C94.9998 30.9212 95.0001 30.9298 95.0003 30.9353C95.0306 33.6707 97.2575 35.8788 100 35.8788C102.743 35.8788 104.969 33.6707 105 30.9353C105 30.9298 105 30.9211 105.001 30.9095C105.003 30.8576 105.01 30.7459 105.026 30.5802C105.058 30.2485 105.13 29.7035 105.284 28.9906C105.594 27.5653 106.234 25.477 107.561 23.0725C110.17 18.3466 115.641 12.0161 127.379 7.17296C138.138 2.73364 155.822 4.85537 170.617 15.8838C185.081 26.6662 196.604 45.9303 194.817 75.3933C193.947 89.7387 187.714 104.43 178.439 118.601C169.188 132.736 157.119 146.037 145.043 157.534C132.982 169.016 121.02 178.601 112.065 185.318C107.591 188.674 103.878 191.307 101.29 193.095C100.823 193.419 100.392 193.715 100 193.982C99.6082 193.715 99.1774 193.419 98.7096 193.095C96.1224 191.307 92.409 188.674 87.9353 185.318C78.9802 178.601 67.0175 169.016 54.957 157.534C42.8809 146.037 30.8121 132.736 21.5607 118.601C12.2865 104.43 6.05282 89.7387 5.18294 75.3933C3.39637 45.9303 14.9189 26.6662 29.3832 15.8838C44.1778 4.85537 61.8623 2.73364 72.6211 7.17296C84.3585 12.0161 89.83 18.3466 92.4386 23.0725C93.7659 25.477 94.4065 27.5654 94.7157 28.9906C94.8703 29.7035 94.9416 30.2485 94.9741 30.5802C94.9903 30.7459 94.9968 30.8576 94.9992 30.9095Z"
    stroke="current" stroke-width="10" stroke-linejoin="round" />
</svg>