<svg width="250" height="250" viewBox="0 0 250 250" fill="none" xmlns="http://www.w3.org/2000/svg">
<path d="M103.922 22.5337C103.922 22.5337 131.783 37.6364 150.557 44.0804C178.592 53.7027 225.438 62.2631 225.438 62.2631L137.397 131.369C137.397 131.369 98.132 124.287 75.4161 114.448C53.2378 104.842 21.9058 82.2319 21.9058 82.2319L103.922 22.5337Z" fill="#E7B1B1"/>
<path d="M138.238 129.618L222.958 62.0713L247 141.067L147.397 226.931L138.238 129.618Z" fill="#DE9898"/>
<path d="M22.6071 82.6772C22.6071 82.6772 53.344 103.067 75.2707 112.444C98.3099 122.296 137.093 129.616 137.093 129.616L146.252 228.074L3.14453 165.107L22.6071 82.6772Z" fill="#F7C6C6"/>
<path d="M22.6627 81.7318L102.361 22C102.361 22 129.059 36.3867 146.639 42.6075C175.937 52.9755 223.386 60.8257 223.386 60.8257M22.6627 81.7318L2 165.356L146.639 228.075M22.6627 81.7318C22.6627 81.7318 54.821 103.496 77.9155 113.016C100.737 122.424 137.783 129.517 137.783 129.517M137.783 129.517L223.386 60.8257M137.783 129.517L146.639 228.075M223.386 60.8257L247 141.464L146.639 228.075" stroke="#3C3C3C" stroke-width="3"/>
<path d="M104.783 94.0822L109.631 94.0297L113.596 93.9868L143.744 69.8623L143.691 65.0152L141.929 65.0342L135.346 65.1055L122.981 65.2395L123.033 70.0866L128.762 70.0246L104.726 88.7944L104.783 94.0822Z" fill="#3C3C3C"/>
<path d="M156.197 72.397C156.197 72.397 163.644 72.7197 167.247 75.3623C170.441 77.7056 172.795 79.7199 173.066 83.6725C173.373 88.1497 172.136 90.8884 168.769 93.8553C167.086 95.3387 164.832 96.5421 162.188 96.5707C158.125 96.6147 130.902 96.9096 130.902 96.9096L149.658 105.52L142.531 112.649L115.508 99.7205C115.508 99.7205 119.045 93.3609 125.988 90.793C134.542 87.6287 154.166 88.2843 154.166 88.2843C154.166 88.2843 159.06 88.3655 160.756 86.4501C162.199 84.8203 163.005 82.7797 162.016 80.7073C160.845 78.2513 157.62 78.5514 155.383 78.5756C152.689 78.6048 150.104 79.5142 149.391 80.8441C148.919 81.7244 149.419 83.4019 149.419 83.4019L140.893 83.4943C140.893 83.4943 139.555 82.0693 139.543 80.9507C139.531 79.8322 139.861 78.6926 140.831 77.7658C142.139 76.5155 144.324 74.8982 146.958 73.8191C150.336 72.4351 156.197 72.397 156.197 72.397Z" fill="#3C3C3C"/>
<path d="M57.9168 68.8442L66.6772 76.0112L82.9718 62.4476L94.7331 70.756L103.892 70.756L103.892 66.1766L90.3996 56.9239L95.878 51.2934L111.906 62.4476L119.92 62.4476L120.138 57.6749L93.6572 39.8987L57.9168 68.8442Z" fill="#3C3C3C"/>
</svg>
