<svg viewBox="0 0 150 150" fill="none" xmlns="http://www.w3.org/2000/svg">
  <path
    d="M103.125 56.25C103.125 63.7092 100.162 70.8629 94.8874 76.1374C89.6129 81.4118 82.4592 84.375 75 84.375C67.5408 84.375 60.3871 81.4118 55.1126 76.1374C49.8382 70.8629 46.875 63.7092 46.875 56.25C46.875 48.7908 49.8382 41.6371 55.1126 36.3626C60.3871 31.0882 67.5408 28.125 75 28.125C82.4592 28.125 89.6129 31.0882 94.8874 36.3626C100.162 41.6371 103.125 48.7908 103.125 56.25V56.25Z"
    fill="#3C3C3C" />
  <path fill-rule="evenodd" clip-rule="evenodd"
    d="M0 75C0 55.1088 7.90176 36.0322 21.967 21.967C36.0322 7.90176 55.1088 0 75 0C94.8912 0 113.968 7.90176 128.033 21.967C142.098 36.0322 150 55.1088 150 75C150 94.8912 142.098 113.968 128.033 128.033C113.968 142.098 94.8912 150 75 150C55.1088 150 36.0322 142.098 21.967 128.033C7.90176 113.968 0 94.8912 0 75V75ZM75 9.375C62.6417 9.37566 50.5347 12.8659 40.0725 19.444C29.6104 26.0221 21.2183 35.4207 15.8622 46.5581C10.5061 57.6954 8.40362 70.1188 9.79686 82.3983C11.1901 94.6779 16.0224 106.314 23.7375 115.969C30.3938 105.244 45.0469 93.75 75 93.75C104.953 93.75 119.597 105.234 126.263 115.969C133.978 106.314 138.81 94.6779 140.203 82.3983C141.596 70.1188 139.494 57.6954 134.138 46.5581C128.782 35.4207 120.39 26.0221 109.927 19.444C99.4653 12.8659 87.3583 9.37566 75 9.375V9.375Z"
    fill="#3C3C3C" />
</svg>