<svg viewBox="0 0 36 35" fill="none" xmlns="http://www.w3.org/2000/svg">
  <path
    d="M32.3261 26.4004C33.9971 24.5479 34.9997 22.2236 34.9997 19.6875C34.9997 14.2188 30.3512 9.7002 24.2931 8.89356C22.379 4.95606 17.8825 2.1875 12.6386 2.1875C5.65679 2.1875 -0.000323168 7.08203 -0.000323168 13.125C-0.000323168 15.6543 1.00228 17.9785 2.67329 19.8379C1.7436 21.9365 0.406795 23.5635 0.382489 23.5908C-0.000323157 24.0488 -0.109698 24.7188 0.115128 25.2998C0.333878 25.8809 0.844295 26.2568 1.40332 26.2568C4.65419 26.2568 7.27919 24.876 9.01096 23.6045C9.56999 23.748 10.1472 23.8574 10.7367 23.9395C12.6446 27.8633 17.1229 30.625 22.3608 30.625C23.6247 30.625 24.84 30.4609 25.9945 30.1602C27.7262 31.4248 30.3452 32.8125 33.6021 32.8125C34.1611 32.8125 34.6655 32.4365 34.8903 31.8555C35.1091 31.2744 35.0058 30.6045 34.6229 30.1465C34.5986 30.126 33.2558 28.499 32.3261 26.4004V26.4004ZM8.45801 20.0908L7.41895 20.8496C6.56218 21.4717 5.68718 21.9639 4.80002 22.3125C4.96409 21.9912 5.12815 21.6494 5.28614 21.3008L6.22798 19.1748L4.72103 17.5C3.90072 16.584 2.91634 15.0869 2.91634 13.125C2.91634 8.97559 7.37034 5.46875 12.6386 5.46875C17.9068 5.46875 22.3608 8.97559 22.3608 13.125C22.3608 17.2744 17.9068 20.7812 12.6386 20.7812C11.636 20.7812 10.6334 20.6514 9.66114 20.3984L8.45801 20.0908ZM30.2783 24.0625L28.7775 25.7305L29.7193 27.8564C29.8773 28.2051 30.0413 28.5469 30.2054 28.8682C29.3183 28.5195 28.4433 28.0273 27.5865 27.4053L26.5474 26.6465L25.3382 26.9609C24.366 27.2139 23.3634 27.3438 22.3608 27.3438C19.0795 27.3438 16.1507 25.9697 14.3825 23.9463C20.5379 23.208 25.2775 18.6553 25.2775 13.125C25.2775 12.8926 25.2532 12.667 25.2349 12.4414C29.1481 13.4326 32.083 16.3242 32.083 19.6875C32.083 21.6494 31.0986 23.1465 30.2783 24.0625Z"
    fill="#EAAAAA" />
</svg>