<svg width="31" height="31" viewBox="0 0 31 31" fill="none" xmlns="http://www.w3.org/2000/svg">
<path d="M12.5643 8.15376C12.5643 8.15376 11.9212 8.16254 10.7941 8.38931C8.24616 8.90199 7.21829 10.3915 5.48801 12.482C3.72893 15.0436 2.05634 19.4896 2.05634 19.4896C1.85385 20.1812 2.22326 20.7143 2.74844 21.1974C3.56492 21.9485 5.5626 21.1974 5.5626 21.1974M26.0781 13.7775H23.8287L15.4419 9.59041M26.0781 13.7775V12.482H30V26.2912H26.0781V24.7895M26.0781 13.7775V24.7895M26.0781 24.7895C21.8643 26.8133 19.503 26.3846 15.2928 24.5236M15.2928 24.5236H11.3997M15.2928 24.5236V27.2039C15.2928 27.2039 14.3735 27.9771 13.4761 27.9989C12.5148 28.0223 11.3997 27.2039 11.3997 27.2039M7.56432 24.5236V27.2039C7.99083 27.7446 8.84565 27.9795 9.5253 27.9989C10.2455 28.0195 11.3997 27.2039 11.3997 27.2039M7.56432 24.5236H11.3997M7.56432 24.5236L6.75687 25.5845C6.75687 25.5845 4.66667 28.325 3.23868 29C3.23868 27.2039 4.21916 23.7001 4.21916 23.7001L14.0816 5.32715M7.56432 24.5236C7.56432 24.5236 5.48801 24.1206 5.48801 22.6696C5.48801 21.2186 6.24859 20.2846 7.4365 20.2846C8.54482 20.2846 9.84124 20.2846 9.84124 20.2846M16.9654 18.5769L14.7161 20.2846H9.84124M11.3997 27.2039V24.5236M16.9654 6.65525L18.7245 3.26609L15.8696 2L14.0816 5.32715M16.9654 6.65525L14.0816 5.32715M16.9654 6.65525L15.4419 9.59041M9.84124 20.2846L10.3039 19.4896L15.4419 9.59041" stroke="#3C3C3C" stroke-width="2"/>
</svg>
