<svg width="150" height="150" viewBox="0 0 150 150" fill="none" xmlns="http://www.w3.org/2000/svg">
  <path
    d="M17.0898 146.797H14.6875V129.004H17.0898V146.797ZM15.4102 137.754H12.3828V135.752H15.4102V137.754ZM9.49219 131.221C9.48568 132.965 9.2806 134.551 8.87695 135.977C8.47982 137.396 7.80273 138.711 6.8457 139.922C5.88867 141.126 4.60286 142.197 2.98828 143.135L1.54297 141.426C2.89714 140.625 3.98112 139.746 4.79492 138.789C5.61523 137.832 6.20443 136.777 6.5625 135.625C6.92708 134.473 7.11263 133.167 7.11914 131.709V131.221H9.49219ZM7.8418 133.203H2.44141V131.221H7.8418V133.203ZM13.0664 146.006H10.7422V129.473H13.0664V146.006ZM22.041 131.934H25.6836V129.814H28.1836V137.578H19.5703V129.814H22.041V131.934ZM25.6836 135.615V133.799H22.041V135.615H25.6836ZM33.1445 138.066H30.6543V129.004H33.1445V138.066ZM35.5469 134.502H32.1094V132.48H35.5469V134.502ZM33.1445 143.564H23.8379V145.693H21.3867V141.777H30.6641V140.664H21.3574V138.74H33.1445V143.564ZM33.6621 146.67H21.3867V144.717H33.6621V146.67ZM42.3633 133.857C42.3633 135.225 42.168 136.546 41.7773 137.822C41.3932 139.092 40.8236 140.225 40.0684 141.221C39.3197 142.217 38.4212 142.962 37.373 143.457L35.9082 141.494C36.8652 141.045 37.679 140.41 38.3496 139.59C39.0267 138.77 39.5345 137.865 39.873 136.875C40.2116 135.885 40.3841 134.88 40.3906 133.857V131.787H42.3633V133.857ZM42.8906 133.857C42.8841 134.801 43.0469 135.739 43.3789 136.67C43.7109 137.601 44.2025 138.457 44.8535 139.238C45.5111 140.013 46.3086 140.615 47.2461 141.045L45.8594 142.998C44.8112 142.523 43.916 141.81 43.1738 140.859C42.4382 139.909 41.8783 138.828 41.4941 137.617C41.11 136.4 40.918 135.146 40.918 133.857V131.787H42.8906V133.857ZM46.4746 132.773H36.6211V130.742H46.4746V132.773ZM50.3516 146.797H47.8516V129.004H50.3516V146.797ZM52.9883 137.891H49.8047V135.811H52.9883V137.891ZM59.375 130.205C60.2995 130.205 61.1361 130.394 61.8848 130.771C62.64 131.143 63.2292 131.66 63.6523 132.324C64.082 132.988 64.2969 133.737 64.2969 134.57C64.2969 135.41 64.082 136.162 63.6523 136.826C63.2292 137.484 62.64 138.001 61.8848 138.379C61.1361 138.75 60.2995 138.936 59.375 138.936C58.444 138.936 57.6009 138.75 56.8457 138.379C56.097 138.001 55.5078 137.484 55.0781 136.826C54.6484 136.162 54.4336 135.41 54.4336 134.57C54.4336 133.737 54.6484 132.988 55.0781 132.324C55.5078 131.66 56.097 131.143 56.8457 130.771C57.6009 130.394 58.444 130.205 59.375 130.205ZM59.375 132.354C58.8997 132.36 58.4766 132.451 58.1055 132.627C57.7344 132.796 57.4414 133.05 57.2266 133.389C57.0117 133.727 56.9043 134.121 56.9043 134.57C56.9043 135.033 57.0117 135.43 57.2266 135.762C57.4414 136.087 57.7344 136.338 58.1055 136.514C58.4766 136.689 58.8997 136.781 59.375 136.787C59.8503 136.781 60.2767 136.689 60.6543 136.514C61.0384 136.338 61.3346 136.087 61.543 135.762C61.7578 135.43 61.8652 135.033 61.8652 134.57C61.8652 134.121 61.7578 133.727 61.543 133.389C61.3346 133.05 61.0384 132.796 60.6543 132.627C60.2767 132.451 59.8503 132.36 59.375 132.354ZM68.5449 146.846H66.0742V129.004H68.5449V146.846ZM53.6914 141.182C55.8138 141.182 57.8158 141.146 59.6973 141.074C61.5853 141.003 63.3757 140.85 65.0684 140.615L65.2441 142.402C64.0267 142.643 62.7637 142.822 61.4551 142.939C60.1465 143.05 58.9128 143.122 57.7539 143.154C56.5951 143.187 55.3385 143.203 53.9844 143.203L53.6914 141.182ZM91.7871 144.717H75.5371V142.676H91.7871V144.717ZM84.8535 143.164H82.4023V138.682H84.8535V143.164ZM89.9805 139.043H77.2559V130.342H89.9805V139.043ZM79.7168 137.09H87.5293V132.324H79.7168V137.09ZM109.062 139.795H92.8223V137.803H109.062V139.795ZM107.285 136.348H94.7852V134.355H107.285V136.348ZM107.109 131.65H97.2656V135.088H94.7852V129.668H107.109V131.65ZM107.373 146.465H94.7754V144.463H107.373V146.465ZM97.2266 144.99H94.7754V141.172H97.2266V144.99ZM129.209 138.955H116.65V136.973H129.209V138.955ZM130.986 144.785H114.736V142.744H130.986V144.785ZM124.053 143.398H121.602V137.881H124.053V143.398ZM129.082 132.256H119.141V137.871H116.65V130.283H129.082V132.256ZM145.137 132.041H133.867V130.068H145.137V132.041ZM148.232 139.639H132.021V137.627H148.232V139.639ZM141.289 146.816H138.789V139.023H141.289V146.816ZM146.328 131.748C146.322 132.594 146.309 133.333 146.289 133.965C146.27 134.596 146.204 135.326 146.094 136.152C145.99 136.979 145.83 137.871 145.615 138.828L143.154 138.555C143.363 137.65 143.516 136.8 143.613 136.006C143.711 135.205 143.773 134.505 143.799 133.906C143.825 133.307 143.838 132.585 143.838 131.738V131.65V130.068H146.328V131.65V131.748Z"
    fill="#3C3C3C" />
  <path
    d="M65.6316 19.9925C65.6316 19.9925 77.8321 26.6061 86.0535 29.4279C98.33 33.6416 118.844 37.3902 118.844 37.3902L80.2903 67.6518C80.2903 67.6518 63.0961 64.5508 53.1488 60.2422C43.4369 56.0356 29.7164 46.1346 29.7164 46.1346L65.6316 19.9925Z"
    fill="#E7B1B1" />
  <path d="M80.6589 66.8848L117.758 37.3059L128.286 71.8982L84.6696 109.499L80.6589 66.8848Z" fill="#DE9898" />
  <path
    d="M30.0242 46.33C30.0242 46.33 43.484 55.2588 53.0858 59.3647C63.1747 63.679 80.158 66.8848 80.158 66.8848L84.1687 110L21.5015 82.4263L30.0242 46.33Z"
    fill="#F7C6C6" />
  <path
    d="M30.0482 45.916L64.9486 19.7593C64.9486 19.7593 76.6398 26.0592 84.3377 28.7834C97.1676 33.3235 117.945 36.7612 117.945 36.7612M30.0482 45.916L21 82.5355L84.3377 110M30.0482 45.916C30.0482 45.916 44.1305 55.4465 54.2436 59.6156C64.2372 63.7355 80.4599 66.8414 80.4599 66.8414M80.4599 66.8414L117.945 36.7612M80.4599 66.8414L84.3377 110M117.945 36.7612L128.286 72.0728L84.3377 110"
    stroke="#3C3C3C" />
  <path
    d="M66.0095 51.3246L68.1321 51.3016L69.8687 51.2828L83.0703 40.7186L83.0473 38.5961L82.2755 38.6044L79.3931 38.6356L73.9781 38.6943L74.0011 40.8169L76.5096 40.7897L65.9844 49.0091L66.0095 51.3246Z"
    fill="#3C3C3C" />
  <path
    d="M88.5236 41.8284C88.5236 41.8284 91.7847 41.9697 93.3622 43.1269C94.7612 44.1531 95.7916 45.0352 95.9105 46.766C96.0451 48.7266 95.5034 49.9259 94.0289 51.2251C93.2917 51.8747 92.3048 52.4016 91.147 52.4142C89.368 52.4334 77.4467 52.5626 77.4467 52.5626L85.6602 56.3333L82.5389 59.4549L70.7055 53.7935C70.7055 53.7935 72.2547 51.0086 75.2948 49.8841C79.0409 48.4984 87.634 48.7855 87.634 48.7855C87.634 48.7855 89.7774 48.8211 90.5201 47.9823C91.152 47.2686 91.5046 46.375 91.0718 45.4675C90.5588 44.3921 89.1465 44.5235 88.1669 44.5341C86.9875 44.5468 85.8555 44.9451 85.5432 45.5274C85.3364 45.9129 85.5553 46.6475 85.5553 46.6475L81.8217 46.6879C81.8217 46.6879 81.236 46.0639 81.2307 45.5741C81.2254 45.0843 81.3698 44.5853 81.7945 44.1794C82.3676 43.6319 83.3243 42.9237 84.4776 42.4512C85.9569 41.8451 88.5236 41.8284 88.5236 41.8284Z"
    fill="#3C3C3C" />
  <path
    d="M45.4868 40.2727L49.323 43.4112L56.4584 37.4717L61.6088 41.11L65.6195 41.11L65.6195 39.1046L59.7111 35.0528L62.1101 32.5872L69.1288 37.4717L72.6382 37.4717L72.7335 35.3817L61.1376 27.5974L45.4868 40.2727Z"
    fill="#3C3C3C" />
</svg>