<?xml version="1.0" standalone="no"?>
<!DOCTYPE svg PUBLIC "-//W3C//DTD SVG 20010904//EN"
 "http://www.w3.org/TR/2001/REC-SVG-20010904/DTD/svg10.dtd">
<svg version="1.0" xmlns="http://www.w3.org/2000/svg"
 width="1009.000000pt" height="1009.000000pt" viewBox="0 0 1009.000000 1009.000000"
 preserveAspectRatio="xMidYMid meet">
<metadata>
Created by potrace 1.14, written by Peter Selinger 2001-2017
</metadata>
<g transform="translate(0.000000,1009.000000) scale(0.100000,-0.100000)"
fill="#000000" stroke="none">
<path d="M3844 8814 c-159 -119 -301 -226 -316 -238 -15 -12 -62 -47 -105 -79
-43 -32 -121 -90 -174 -130 -121 -91 -184 -138 -285 -212 -15 -11 -33 -26 -40
-32 -7 -7 -15 -13 -19 -13 -4 0 -12 -6 -19 -12 -7 -7 -24 -21 -37 -31 -33 -24
-209 -155 -239 -178 -136 -104 -171 -129 -180 -129 -5 0 -10 -4 -10 -9 0 -4
-19 -21 -42 -37 -24 -16 -48 -33 -54 -39 -30 -26 -55 -45 -59 -45 -3 0 -15 -9
-27 -19 -19 -16 -147 -112 -237 -178 -13 -10 -30 -24 -37 -30 -7 -7 -17 -13
-23 -13 -6 0 -11 -3 -11 -7 0 -5 -20 -21 -45 -38 -24 -16 -45 -33 -45 -37 0
-5 -6 -8 -13 -8 -7 0 -23 -10 -37 -23 -14 -12 -56 -46 -95 -74 -38 -29 -74
-56 -80 -60 -5 -5 -46 -35 -90 -68 -44 -33 -83 -64 -87 -70 -4 -5 -8 -7 -8 -2
0 4 -9 -1 -19 -10 -26 -24 -37 -32 -95 -73 -28 -19 -57 -42 -67 -50 -27 -24
-62 -50 -92 -68 -15 -9 -27 -20 -27 -24 0 -4 -4 -8 -10 -8 -5 0 -19 -8 -29
-17 -24 -22 -25 -23 -133 -102 -68 -51 -85 -68 -76 -78 8 -10 6 -13 -10 -13
-20 0 -24 -8 -38 -84 -3 -16 -7 -33 -10 -38 -3 -4 -7 -16 -9 -25 -1 -10 -13
-58 -25 -108 -12 -49 -23 -97 -25 -105 -1 -8 -8 -35 -15 -60 -7 -25 -14 -54
-17 -65 -2 -11 -5 -24 -7 -30 -2 -5 -6 -28 -11 -50 -4 -22 -10 -44 -14 -50 -3
-5 -7 -19 -8 -30 -2 -11 -14 -63 -28 -115 -13 -52 -27 -106 -29 -120 -2 -14
-5 -25 -6 -25 -2 0 -7 -22 -15 -60 -3 -16 -8 -38 -11 -47 -3 -9 -7 -25 -9 -35
-3 -10 -14 -56 -26 -103 -11 -47 -22 -92 -24 -100 -1 -8 -9 -35 -15 -60 -7
-25 -14 -52 -15 -60 -1 -8 -8 -35 -14 -60 -7 -25 -14 -52 -16 -60 -2 -8 -36
-145 -75 -304 -40 -160 -73 -297 -75 -305 -2 -9 -38 -153 -79 -321 -42 -168
-78 -314 -81 -325 -2 -11 -6 -29 -9 -40 -3 -11 -17 -69 -31 -130 -15 -60 -29
-117 -33 -125 -3 -8 -4 -19 -3 -24 1 -4 -4 -14 -10 -22 -6 -8 -9 -14 -6 -14 4
0 -32 -154 -44 -190 -5 -14 -8 -28 -13 -55 -4 -16 -9 -41 -12 -54 -2 -13 -6
-28 -7 -34 -2 -11 39 -28 193 -79 52 -17 101 -35 108 -41 6 -5 12 -6 12 -3 0
4 9 2 21 -4 11 -6 28 -13 37 -15 15 -4 238 -81 282 -98 8 -3 58 -20 110 -37
52 -18 102 -34 110 -37 8 -4 20 -7 25 -9 18 -5 129 -45 150 -54 11 -5 65 -23
120 -41 55 -17 114 -38 130 -45 30 -13 122 -45 140 -49 6 -1 17 -5 25 -8 15
-7 122 -44 150 -52 24 -7 133 -45 150 -52 8 -3 17 -7 20 -8 3 -1 12 -4 20 -8
8 -3 58 -20 110 -37 104 -35 286 -98 310 -107 8 -3 20 -7 25 -9 6 -1 82 -28
170 -59 88 -31 165 -58 170 -59 6 -2 17 -6 25 -9 24 -9 177 -62 260 -90 41
-14 140 -49 220 -77 80 -28 154 -53 165 -56 11 -2 29 -8 40 -13 16 -8 175 -65
210 -75 6 -2 23 -8 38 -14 16 -7 34 -12 42 -12 8 0 16 -4 20 -10 3 -5 12 -7
20 -3 8 3 15 0 15 -6 0 -6 11 -11 23 -11 13 0 27 -3 31 -8 4 -4 11 -7 14 -8 4
0 14 -3 22 -7 8 -3 62 -22 120 -41 95 -32 332 -115 370 -129 14 -5 90 -30 100
-32 6 -2 37 -13 65 -25 12 -4 63 -22 115 -40 167 -56 324 -111 345 -119 22 -9
43 -16 180 -62 50 -16 97 -33 105 -36 29 -11 205 -74 220 -78 8 -2 94 -31 190
-65 215 -76 312 -108 328 -111 4 0 12 -5 19 -11 15 -12 33 -2 33 20 0 13 2 13
14 -3 13 -18 17 -16 82 30 38 27 71 51 74 55 3 3 46 34 95 69 50 36 98 73 108
83 10 10 22 18 27 18 5 0 15 6 22 12 34 32 98 78 107 78 6 0 11 3 11 8 0 4 17
18 37 32 21 14 45 30 53 37 22 18 130 97 255 188 61 44 117 86 125 92 8 7 56
42 105 78 50 35 99 72 110 80 11 9 61 46 110 81 110 80 122 89 211 156 39 29
84 62 99 73 15 11 46 34 69 50 22 17 84 62 136 100 52 38 100 73 105 77 6 5
48 36 95 70 47 34 87 65 88 70 2 4 10 8 18 8 8 0 14 5 14 10 0 6 6 10 14 10 8
0 16 4 18 8 3 8 87 72 156 119 18 13 42 32 54 43 12 11 30 22 40 26 10 3 18 9
18 13 0 3 14 15 32 25 17 11 40 26 51 35 10 9 31 26 45 38 15 13 33 23 40 23
6 0 12 4 12 8 0 5 33 31 73 59 39 28 81 58 92 67 11 9 47 35 80 59 33 24 123
90 200 147 77 57 156 114 175 128 19 14 37 28 40 31 3 4 28 22 55 41 28 19 55
38 60 43 13 11 319 235 470 344 66 48 126 93 133 100 7 7 16 13 20 13 4 0 21
13 38 28 18 15 41 33 52 41 16 11 19 19 11 33 -5 10 -7 18 -4 18 2 0 -2 17
-10 38 -8 20 -33 102 -55 182 -23 80 -45 159 -50 175 -32 102 -72 240 -74 249
-2 11 -23 83 -53 179 -8 26 -16 53 -17 60 -2 7 -8 30 -14 52 -6 22 -12 43 -12
47 -1 4 -7 23 -16 43 -8 19 -14 37 -14 40 1 6 -29 115 -37 135 -3 8 -8 24 -10
35 -2 11 -11 43 -20 70 -9 28 -18 59 -20 70 -2 11 -7 29 -12 40 -5 11 -19 56
-31 100 -12 44 -29 100 -37 125 -8 25 -16 54 -18 65 -1 11 -8 32 -14 48 -6 15
-13 38 -15 50 -3 12 -26 92 -51 177 -25 85 -48 162 -50 170 -2 8 -18 62 -35
120 -17 58 -42 146 -56 195 -14 50 -29 99 -33 110 -5 11 -25 76 -44 145 -19
69 -54 188 -77 265 -22 77 -43 149 -45 159 -20 89 -43 135 -65 129 -14 -4 -17
-1 -14 14 3 12 0 20 -8 21 -7 0 -24 3 -38 6 -14 3 -41 7 -60 10 -19 2 -46 7
-60 10 -14 4 -38 8 -55 10 -16 3 -43 7 -60 11 -16 3 -68 13 -115 21 -47 9 -92
17 -100 19 -8 2 -53 10 -100 19 -47 9 -96 18 -110 21 -14 3 -38 7 -55 10 -16
2 -47 9 -67 14 -21 5 -38 7 -38 5 0 -3 -8 0 -18 5 -10 5 -36 12 -58 15 -21 3
-50 8 -64 11 -14 3 -38 8 -55 11 -16 2 -48 10 -70 16 -22 5 -51 12 -65 14 -14
2 -36 7 -50 10 -14 3 -34 8 -45 10 -41 8 -62 13 -128 28 -37 9 -82 18 -100 21
-17 3 -40 8 -49 11 -9 3 -25 7 -35 9 -10 2 -45 11 -79 19 -34 8 -72 17 -85 20
-24 5 -51 11 -91 22 -13 3 -36 7 -51 10 -16 2 -33 7 -40 11 -6 3 -29 10 -51
15 -23 4 -50 10 -61 13 -11 3 -29 7 -40 10 -11 2 -47 12 -80 21 -33 9 -67 18
-75 20 -52 12 -252 68 -340 94 -58 17 -118 35 -135 40 -37 10 -195 59 -215 67
-8 3 -22 7 -30 9 -8 2 -23 7 -35 13 -11 5 -38 15 -60 21 -22 6 -50 16 -62 21
-46 19 -69 27 -103 39 -41 14 -62 23 -110 43 -19 9 -60 25 -90 37 -30 12 -61
26 -67 32 -7 6 -13 8 -13 5 0 -7 -207 84 -272 119 -15 8 -31 15 -35 16 -14 2
-149 66 -393 186 -129 64 -237 116 -240 117 -3 0 -14 6 -25 12 -11 6 -92 48
-180 93 -88 45 -183 95 -212 111 -29 16 -56 29 -61 29 -5 0 -139 -97 -298
-216z m1873 -3926 c-3 -8 -6 -5 -6 6 -1 11 2 17 5 13 3 -3 4 -12 1 -19z m10
-93 c0 -8 -4 -12 -9 -9 -5 3 -6 10 -3 15 9 13 12 11 12 -6z m0 -82 c-3 -10 -5
-4 -5 12 0 17 2 24 5 18 2 -7 2 -21 0 -30z m13 -103 c0 -5 -5 -10 -11 -10 -5
0 -7 5 -4 10 3 6 8 10 11 10 2 0 4 -4 4 -10z m0 -80 c0 -5 -5 -10 -11 -10 -5
0 -7 5 -4 10 3 6 8 10 11 10 2 0 4 -4 4 -10z m5 -100 c3 -5 1 -10 -4 -10 -6 0
-11 5 -11 10 0 6 2 10 4 10 3 0 8 -4 11 -10z"/>
</g>
</svg>
